{
	"asset":{
		"generator":"Khronos glTF Blender I/O v4.3.47",
		"version":"2.0"
	},
	"scene":0,
	"scenes":[
		{
			"name":"Scene",
			"nodes":[
				0
			]
		}
	],
	"nodes":[
		{
			"mesh":0,
			"name":"Text",
			"rotation":[
				0.6929769515991211,
				-0.031184474006295204,
				-0.032380592077970505,
				0.7195568680763245
			]
		}
	],
	"meshes":[
		{
			"name":"Text",
			"primitives":[
				{
					"attributes":{
						"POSITION":0,
						"NORMAL":1
					},
					"indices":2
				}
			]
		}
	],
	"accessors":[
		{
			"bufferView":0,
			"componentType":5126,
			"count":27414,
			"max":[
				1.6322202682495117,
				0.15827178955078125,
				0.034221433103084564
			],
			"min":[
				-1.5609151124954224,
				-0.04158866032958031,
				-0.49488207697868347
			],
			"type":"VEC3"
		},
		{
			"bufferView":1,
			"componentType":5126,
			"count":27414,
			"type":"VEC3"
		},
		{
			"bufferView":2,
			"componentType":5123,
			"count":164424,
			"type":"SCALAR"
		}
	],
	"bufferViews":[
		{
			"buffer":0,
			"byteLength":328968,
			"byteOffset":0,
			"target":34962
		},
		{
			"buffer":0,
			"byteLength":328968,
			"byteOffset":328968,
			"target":34962
		},
		{
			"buffer":0,
			"byteLength":328848,
			"byteOffset":657936,
			"target":34963
		}
	],
	"buffers":[
		{
			"byteLength":986784,
			"uri":"contact.bin"
		}
	]
}
