{
	"asset":{
		"generator":"Khronos glTF Blender I/O v4.3.47",
		"version":"2.0"
	},
	"scene":0,
	"scenes":[
		{
			"name":"Scene",
			"nodes":[
				0
			]
		}
	],
	"nodes":[
		{
			"mesh":0,
			"name":"Text",
			"rotation":[
				0.6930411458015442,
				-0.05239196494221687,
				-0.05419909954071045,
				0.7169459462165833
			]
		}
	],
	"meshes":[
		{
			"name":"Text",
			"primitives":[
				{
					"attributes":{
						"POSITION":0,
						"NORMAL":1
					},
					"indices":2
				}
			]
		}
	],
	"accessors":[
		{
			"bufferView":0,
			"componentType":5126,
			"count":27842,
			"max":[
				2.4642505645751953,
				0.25276440382003784,
				0.024760201573371887
			],
			"min":[
				0.003785977140069008,
				-0.022849392145872116,
				-0.49198368191719055
			],
			"type":"VEC3"
		},
		{
			"bufferView":1,
			"componentType":5126,
			"count":27842,
			"type":"VEC3"
		},
		{
			"bufferView":2,
			"componentType":5123,
			"count":167004,
			"type":"SCALAR"
		}
	],
	"bufferViews":[
		{
			"buffer":0,
			"byteLength":334104,
			"byteOffset":0,
			"target":34962
		},
		{
			"buffer":0,
			"byteLength":334104,
			"byteOffset":334104,
			"target":34962
		},
		{
			"buffer":0,
			"byteLength":334008,
			"byteOffset":668208,
			"target":34963
		}
	],
	"buffers":[
		{
			"byteLength":1002216,
			"uri":"merch.bin"
		}
	]
}
