{
	"asset":{
		"generator":"Khronos glTF Blender I/O v4.3.47",
		"version":"2.0"
	},
	"scene":0,
	"scenes":[
		{
			"name":"Scene",
			"nodes":[
				0
			]
		}
	],
	"nodes":[
		{
			"mesh":0,
			"name":"Text",
			"rotation":[
				0.6993283629417419,
				0.06500447541475296,
				0.0658833384513855,
				0.7087833285331726
			]
		}
	],
	"meshes":[
		{
			"name":"Text",
			"primitives":[
				{
					"attributes":{
						"POSITION":0,
						"NORMAL":1
					},
					"indices":2
				}
			]
		}
	],
	"accessors":[
		{
			"bufferView":0,
			"componentType":5126,
			"count":39168,
			"max":[
				2.1492884159088135,
				0.2438105046749115,
				0.64381343126297
			],
			"min":[
				-0.007985570468008518,
				-0.030848432332277298,
				-0.5192073583602905
			],
			"type":"VEC3"
		},
		{
			"bufferView":1,
			"componentType":5126,
			"count":39168,
			"type":"VEC3"
		},
		{
			"bufferView":2,
			"componentType":5123,
			"count":234960,
			"type":"SCALAR"
		}
	],
	"bufferViews":[
		{
			"buffer":0,
			"byteLength":470016,
			"byteOffset":0,
			"target":34962
		},
		{
			"buffer":0,
			"byteLength":470016,
			"byteOffset":470016,
			"target":34962
		},
		{
			"buffer":0,
			"byteLength":469920,
			"byteOffset":940032,
			"target":34963
		}
	],
	"buffers":[
		{
			"byteLength":1409952,
			"uri":"pastwork.bin"
		}
	]
}
