{
	"asset":{
		"generator":"Khronos glTF Blender I/O v4.3.47",
		"version":"2.0"
	},
	"scene":0,
	"scenes":[
		{
			"name":"Scene",
			"nodes":[
				0
			]
		}
	],
	"nodes":[
		{
			"mesh":0,
			"name":"Text.001",
			"translation":[
				0.009916678071022034,
				-0.045792412012815475,
				-0.26725292205810547
			]
		}
	],
	"materials":[
		{
			"doubleSided":true,
			"name":"Material.001",
			"pbrMetallicRoughness":{
				"baseColorFactor":[
					0.5709696412086487,
					0.5539013743400574,
					0.5977752208709717,
					1
				],
				"metallicFactor":0.8704545497894287,
				"roughnessFactor":0.23863637447357178
			}
		}
	],
	"meshes":[
		{
			"name":"Text.001",
			"primitives":[
				{
					"attributes":{
						"POSITION":0,
						"NORMAL":1,
						"TEXCOORD_0":2
					},
					"indices":3,
					"material":0
				}
			]
		}
	],
	"accessors":[
		{
			"bufferView":0,
			"componentType":5126,
			"count":49736,
			"max":[
				1.1975901126861572,
				1.129794716835022,
				0.04218548536300659
			],
			"min":[
				-1.1756960153579712,
				0.019394874572753906,
				-0.24289365112781525
			],
			"type":"VEC3"
		},
		{
			"bufferView":1,
			"componentType":5126,
			"count":49736,
			"type":"VEC3"
		},
		{
			"bufferView":2,
			"componentType":5126,
			"count":49736,
			"type":"VEC2"
		},
		{
			"bufferView":3,
			"componentType":5123,
			"count":242676,
			"type":"SCALAR"
		}
	],
	"bufferViews":[
		{
			"buffer":0,
			"byteLength":596832,
			"byteOffset":0,
			"target":34962
		},
		{
			"buffer":0,
			"byteLength":596832,
			"byteOffset":596832,
			"target":34962
		},
		{
			"buffer":0,
			"byteLength":397888,
			"byteOffset":1193664,
			"target":34962
		},
		{
			"buffer":0,
			"byteLength":485352,
			"byteOffset":1591552,
			"target":34963
		}
	],
	"buffers":[
		{
			"byteLength":2076904,
			"uri":"aboutme.bin"
		}
	]
}
